<?xml version="1.0" encoding="utf-8"?>
<!-- Generator: Adobe Illustrator 25.4.1, SVG Export Plug-In . SVG Version: 6.00 Build 0)  -->
<svg version="1.1" id="Layer_1" xmlns="http://www.w3.org/2000/svg" xmlns:xlink="http://www.w3.org/1999/xlink" x="0px" y="0px"
	 viewBox="0 0 1000 500" style="enable-background:new 0 0 1000 500;" xml:space="preserve">
<style type="text/css">
	.st0{fill:#F15A29;}
	.st1{fill:#EF4136;}
	.st2{fill:#F7941D;}
	.st3{fill:#FBB040;}
</style>
<path d="M86.5,254.2v-40.1h13.2v39.6c0,14.6,6.6,20.9,18.1,20.9s18-6.3,18-20.9v-39.6h13v40.1c0,20.7-11.7,32-31.1,32
	C98.2,286.2,86.5,274.9,86.5,254.2z"/>
<path d="M226.6,239.4c0,15.6-11.6,25.3-30.2,25.3h-16v20.5h-13.2v-71h29.2C215.1,214.1,226.6,223.6,226.6,239.4z M213.4,239.4
	c0-8.9-6-14.1-17.6-14.1h-15.4v28.2h15.4C207.4,253.5,213.4,248.3,213.4,239.4z"/>
<path class="st0" d="M256.7,220.6h-25v-6.5h57.4v6.5h-25v64.5h-7.5v-64.5H256.7z"/>
<path class="st0" d="M360.5,214.1v71h-7.4v-32.8h-44.5v32.8h-7.5v-71h7.5v31.7h44.5v-31.7H360.5z"/>
<path class="st0" d="M431,278.7v6.5h-50.2v-71h48.7v6.5h-41.2V246H425v6.4h-36.7v26.4H431V278.7z"/>
<path d="M440.6,277.6l4.6-10.2c5.7,4.6,14.7,7.8,23.4,7.8c11.1,0,15.7-4,15.7-9.2c0-15.3-42.2-5.3-42.2-31.7
	c0-11.5,9.1-21.2,28.6-21.2c8.5,0,17.5,2.2,23.6,6.3l-4.2,10.2c-6.4-3.8-13.4-5.6-19.6-5.6c-11,0-15.4,4.3-15.4,9.6
	c0,15.1,42.1,5.3,42.1,31.4c0,11.4-9.2,21.1-28.7,21.1C457.6,286.2,446.5,282.7,440.6,277.6z"/>
<path d="M573.6,214.1v71h-13.2v-30.4h-36.7v30.4h-13.2v-71h13.2v29.3h36.7v-29.3H573.6z"/>
<path d="M800.1,214.1h13.2V274h37.1v11.2h-50.3V214.1z"/>
<path d="M874.1,225.2v21.6h34.3V258h-34.3v27.2h-13.2v-71h51.9v11.1h-38.7V225.2z"/>
<path class="st1" d="M599.6,225.7h169.3c3.1,0,5.6-2.5,5.6-5.6l0,0c0-3.1-2.5-5.6-5.6-5.6H599.6c-3.1,0-5.6,2.5-5.6,5.6l0,0
	C594,223.2,596.5,225.7,599.6,225.7z"/>
<path class="st2" d="M599.6,255.3h169.3c3.1,0,5.6-2.5,5.6-5.6l0,0c0-3.1-2.5-5.6-5.6-5.6H599.6c-3.1,0-5.6,2.5-5.6,5.6l0,0
	C594,252.8,596.5,255.3,599.6,255.3z"/>
<path class="st3" d="M599.6,284.9h169.3c3.1,0,5.6-2.5,5.6-5.6l0,0c0-3.1-2.5-5.6-5.6-5.6H599.6c-3.1,0-5.6,2.5-5.6,5.6l0,0
	C594,282.4,596.5,284.9,599.6,284.9z"/>
</svg>
